<svg width="424" height="428" viewBox="0 0 424 428" fill="none" xmlns="http://www.w3.org/2000/svg">
<g clip-path="url(#clip0_35_261)">
<path d="M0.0374837 231.288C-0.0201799 221.061 -0.077838 210.834 0.410318 200.136C30.0863 199.642 59.2167 199.552 88.3462 199.672C92.4108 199.689 93.8613 198.561 93.8266 194.379C93.6526 173.385 93.6618 152.389 93.8215 131.395C93.8523 127.346 92.6429 125.971 88.4501 125.994C58.9876 126.157 29.5237 126.094 0.0603024 126.104C0.994779 115.8 1.92925 105.496 3.40959 94.7673C31.7888 94.3209 59.6233 94.1647 87.4545 94.3983C92.6175 94.4416 93.888 92.8746 93.8551 87.9469C93.6723 60.6378 93.8224 33.3265 93.8585 6.01588C104.211 4.9513 114.563 3.88672 125.339 3.36273C125.765 66.9667 125.764 130.03 125.773 193.094C125.774 199.573 125.801 199.592 132.406 199.592C188.406 199.598 244.406 199.597 300.406 199.593C307.019 199.592 307.037 199.577 307.039 193.18C307.046 162.227 307.024 131.275 307.047 100.323C307.071 67.8818 307.134 35.4409 307.18 3C315.726 4.06138 324.272 5.12347 332.819 6.18359C334.593 6.40369 336.368 6.61655 338.581 7.36465C339.034 34.6777 339.16 61.4597 338.958 88.2392C338.922 92.9769 340.199 94.4182 345.068 94.3837C371.699 94.1947 398.333 94.3536 424.966 94.393C426.001 104.336 427.036 114.279 427.636 124.848C425.071 125.673 422.941 126.045 420.809 126.049C395.477 126.09 370.144 126.186 344.814 125.976C340.154 125.937 338.924 127.399 338.969 131.88C339.18 152.567 339.205 173.259 338.954 193.945C338.897 198.682 340.562 199.701 344.969 199.68C372.633 199.547 400.298 199.666 427.962 199.701C428.02 209.929 428.078 220.157 427.59 230.855C399.561 231.35 372.078 231.466 344.596 231.302C340.184 231.276 338.926 232.563 338.969 236.914C339.176 258.085 339.207 279.262 338.953 300.432C338.895 305.229 340.678 306.208 345.029 306.183C372.678 306.028 400.327 306.09 427.977 306.081C426.904 316.533 425.831 326.986 423.937 337.662C397.105 337.893 371.092 338.017 345.082 337.807C340.193 337.768 338.925 339.308 338.959 344.025C339.148 370.684 339.021 397.346 339.001 424.006C332.905 425.047 326.828 426.22 320.706 427.081C316.508 427.672 312.248 427.827 307.574 427.63C307.102 424.766 307.046 422.45 307.046 420.133C307.041 359.221 306.988 298.309 307.144 237.397C307.156 232.601 305.805 231.28 300.989 231.294C244.489 231.453 187.988 231.435 131.488 231.317C127.251 231.308 125.672 232.316 125.683 236.823C125.826 300.549 125.797 364.274 125.81 428C115.435 427.056 105.06 426.112 94.2479 424.616C93.7915 397.256 93.6793 370.447 93.8436 343.639C93.8714 339.117 92.5764 337.766 87.94 337.799C59.9471 337.995 31.952 337.873 3.95754 337.857C2.94334 333.55 1.54472 329.289 1.00865 324.923C0.278025 318.974 0.205202 312.944 0.394418 306.534C31.6866 306.119 62.4346 306.119 93.4837 306.119C93.5892 303.992 93.7383 302.373 93.7395 300.754C93.7552 279.747 93.6104 258.739 93.8533 237.736C93.91 232.833 92.6554 231.233 87.4735 231.272C58.3298 231.489 29.1831 231.323 0.0374837 231.288Z" fill="#6282C1"/>
<path d="M306.635 0.0737182C307.069 32.6184 307.006 65.104 306.982 97.5897C306.96 128.585 306.981 159.58 306.974 190.575C306.973 196.981 306.954 196.996 300.352 196.997C244.444 197.001 188.536 197.001 132.627 196.996C126.033 196.996 126.006 196.977 126.006 190.488C125.997 127.338 125.997 64.1877 126.018 0.580342C164.956 0.0826643 203.872 0.0331487 242.788 0.00484234C263.91 -0.0105217 285.032 0.0102084 306.635 0.0737182Z" fill="#C0CDEA"/>
<path d="M126.608 424.931C126.114 361.096 126.143 297.315 126 233.534C125.99 229.023 127.564 228.015 131.79 228.023C188.143 228.142 244.497 228.159 300.85 228C305.654 227.987 307.001 229.309 306.989 234.108C306.834 295.073 306.887 356.038 306.892 417.003C306.892 419.321 306.947 421.64 307 424.416C270.805 424.915 234.586 424.968 198.368 424.994C174.609 425.011 150.849 424.99 126.608 424.931Z" fill="#C0CDEA"/>
<path d="M0.0064985 228.493C29.2492 228.053 58.4313 228.219 87.6106 228.001C92.7988 227.962 94.0549 229.565 93.9982 234.478C93.755 255.524 93.8999 276.575 93.8842 297.624C93.883 299.246 93.7337 300.869 93.6281 303C62.5412 303 31.7557 303 0.509934 302.973C0.0147595 278.287 -0.0201613 253.628 0.0064985 228.493Z" fill="#C0CDEA"/>
<path d="M0.00804426 123.572C29.5916 123.101 59.1035 123.163 88.6141 123C92.8137 122.977 94.0251 124.358 93.9942 128.423C93.8343 149.506 93.8251 170.59 93.9994 191.672C94.0341 195.872 92.5812 197.005 88.5101 196.988C59.333 196.867 30.155 196.958 0.517322 197C0.0168978 172.691 -0.0235197 148.363 0.00804426 123.572Z" fill="#C0CDEA"/>
<path d="M427.998 302.414C400.319 302.906 372.695 302.844 345.072 303C340.725 303.024 338.944 302.044 339.001 297.239C339.256 276.035 339.225 254.826 339.018 233.621C338.975 229.263 340.232 227.974 344.64 228C372.096 228.164 399.554 228.048 427.47 228.006C427.97 252.635 428.011 277.283 427.998 302.414Z" fill="#C0CDEA"/>
<path d="M427.998 196.543C400.295 196.985 372.652 196.866 345.011 197C340.608 197.021 338.944 195.993 339.001 191.217C339.252 170.359 339.227 149.496 339.016 128.637C338.971 124.119 340.2 122.645 344.856 122.684C370.166 122.896 395.478 122.799 420.789 122.757C422.919 122.754 425.048 122.379 427.547 122C427.964 146.57 428.012 171.317 427.998 196.543Z" fill="#C0CDEA"/>
<path d="M93.5911 3C93.9668 30.5445 93.8173 58.027 93.9994 85.5073C94.0322 90.4659 92.7667 92.0427 87.6244 91.9991C59.904 91.7641 32.1803 91.9212 4 91.9579C7.15694 80.8983 9.37382 69.0957 14.6546 58.8891C29.1373 30.8971 52.1613 12.835 82.787 4.92792C86.1956 4.04786 89.7127 3.59063 93.5911 3Z" fill="#C0CDEA"/>
<path d="M4 335.472C32.0388 335.075 60.0652 335.197 88.0894 335.001C92.7309 334.968 94.0273 336.323 93.9996 340.86C93.835 367.753 93.9474 394.649 93.9938 422C84.0015 421.638 74.5358 418.784 65.4159 414.696C41.4641 403.96 23.5831 386.756 12.3963 363.25C8.33694 354.721 6.71885 345.041 4 335.472Z" fill="#BFCCEA"/>
<path d="M425 91.6008C398.397 91.9693 371.754 91.8103 345.113 91.9994C340.242 92.034 338.965 90.5917 339.001 85.851C339.202 59.0541 339.077 32.2547 339.054 5C350.808 6.1157 362.063 9.8201 371.979 15.9461C381.008 21.5242 389.171 28.6679 397.068 35.8265C407.542 45.321 414.381 57.4269 419.087 70.6087C421.482 77.3162 423.03 84.322 425 91.6008Z" fill="#C0CDEA"/>
<path d="M339.453 421C339.062 394.357 339.189 367.777 339.001 341.199C338.967 336.497 340.226 334.961 345.079 335.001C370.898 335.21 396.72 335.087 423 335.065C422.671 347.427 418.22 358.817 412.047 369.178C406.912 377.797 400.208 385.651 393.328 393.036C379.975 407.371 363.022 415.695 344.039 420.088C342.646 420.41 341.255 420.738 339.453 421Z" fill="#C0CDEA"/>
</g>
<defs>
<clipPath id="clip0_35_261">
<rect width="424" height="428" fill="white"/>
</clipPath>
</defs>
</svg>
